<svg width="40" height="40" viewBox="0 0 40 40" fill="none" xmlns="http://www.w3.org/2000/svg">
<path d="M0 19.5771C0 30.3893 8.76498 39.1543 19.5771 39.1543C30.3893 39.1543 39.1543 30.3893 39.1543 19.5771C39.1543 8.76498 30.3893 0 19.5771 0C8.76498 0 0 8.76498 0 19.5771Z" fill="#1877F2"/>
<path d="M29.3657 19.5771C29.3657 14.1934 24.9609 9.78857 19.5771 9.78857C14.1934 9.78857 9.78857 14.1934 9.78857 19.5771C9.78857 24.4714 13.3369 28.5092 17.9865 29.2433V22.3914H15.5394V19.5771H17.9865V17.3747C17.9865 14.9276 19.4548 13.5816 21.6572 13.5816C22.7584 13.5816 23.8596 13.8264 23.8596 13.8264V16.2735H22.6361C21.4125 16.2735 21.0454 17.0076 21.0454 17.7418V19.5771H23.7373L23.2479 22.3914H20.9231V29.3657C25.8174 28.6316 29.3657 24.4714 29.3657 19.5771Z" fill="black"/>
</svg>
