<svg width="40" height="40" viewBox="0 0 40 40" fill="none" xmlns="http://www.w3.org/2000/svg">
<path d="M0.134033 19.5771C0.134033 30.3893 8.89901 39.1543 19.7112 39.1543C30.5233 39.1543 39.2883 30.3893 39.2883 19.5771C39.2883 8.76498 30.5233 0 19.7112 0C8.89901 0 0.134033 8.76498 0.134033 19.5771Z" fill="#F00073"/>
<path d="M19.7113 11.257C22.4032 11.257 22.7702 11.257 23.8714 11.257C24.8503 11.257 25.3397 11.5017 25.7068 11.6241C26.1962 11.8688 26.5633 11.9911 26.9304 12.3582C27.2974 12.7253 27.5422 13.0923 27.6645 13.5818C27.7869 13.9488 27.9092 14.4383 28.0316 15.4171C28.0316 16.5183 28.0316 16.7631 28.0316 19.5773C28.0316 22.3915 28.0316 22.6362 28.0316 23.7374C28.0316 24.7163 27.7869 25.2057 27.6645 25.5728C27.4198 26.0622 27.2974 26.4293 26.9304 26.7963C26.5633 27.1634 26.1962 27.4081 25.7068 27.5305C25.3397 27.6528 24.8503 27.7752 23.8714 27.8975C22.7702 27.8975 22.5255 27.8975 19.7113 27.8975C16.8971 27.8975 16.6524 27.8975 15.5512 27.8975C14.5723 27.8975 14.0829 27.6528 13.7158 27.5305C13.2264 27.2858 12.8593 27.1634 12.4922 26.7963C12.1252 26.4293 11.8804 26.0622 11.7581 25.5728C11.6357 25.2057 11.5134 24.7163 11.391 23.7374C11.391 22.6362 11.391 22.3915 11.391 19.5773C11.391 16.7631 11.391 16.5183 11.391 15.4171C11.391 14.4383 11.6357 13.9488 11.7581 13.5818C12.0028 13.0923 12.1252 12.7253 12.4922 12.3582C12.8593 11.9911 13.2264 11.7464 13.7158 11.6241C14.0829 11.5017 14.5723 11.3793 15.5512 11.257C16.6524 11.257 17.0194 11.257 19.7113 11.257ZM19.7113 9.42163C16.8971 9.42163 16.6524 9.42163 15.5512 9.42163C14.4499 9.42163 13.7158 9.66635 13.104 9.91106C12.4922 10.1558 11.8804 10.5228 11.2687 11.1346C10.6569 11.7464 10.4122 12.2358 10.0451 12.97C9.80038 13.5818 9.67802 14.3159 9.55566 15.4171C9.55566 16.5183 9.55566 16.8854 9.55566 19.5773C9.55566 22.3915 9.55566 22.6362 9.55566 23.7374C9.55566 24.8386 9.80038 25.5728 10.0451 26.1846C10.2898 26.7963 10.6569 27.4081 11.2687 28.0199C11.8804 28.6317 12.3699 28.8764 13.104 29.2435C13.7158 29.4882 14.4499 29.6105 15.5512 29.7329C16.6524 29.7329 17.0194 29.7329 19.7113 29.7329C22.4032 29.7329 22.7702 29.7329 23.8714 29.7329C24.9727 29.7329 25.7068 29.4882 26.3186 29.2435C26.9304 28.9988 27.5422 28.6317 28.1539 28.0199C28.7657 27.4081 29.0104 26.9187 29.3775 26.1846C29.6222 25.5728 29.7446 24.8386 29.8669 23.7374C29.8669 22.6362 29.8669 22.2691 29.8669 19.5773C29.8669 16.8854 29.8669 16.5183 29.8669 15.4171C29.8669 14.3159 29.6222 13.5818 29.3775 12.97C29.1328 12.3582 28.7657 11.7464 28.1539 11.1346C27.5422 10.5228 27.0527 10.2781 26.3186 9.91106C25.7068 9.66635 24.9727 9.54399 23.8714 9.42163C22.7702 9.42163 22.5255 9.42163 19.7113 9.42163Z" fill="black"/>
<path d="M19.7113 14.3159C16.7747 14.3159 14.4499 16.6407 14.4499 19.5773C14.4499 22.5138 16.7747 24.8386 19.7113 24.8386C22.6479 24.8386 24.9727 22.5138 24.9727 19.5773C24.9727 16.6407 22.6479 14.3159 19.7113 14.3159ZM19.7113 23.0033C17.8759 23.0033 16.2853 21.535 16.2853 19.5773C16.2853 17.7419 17.7536 16.1513 19.7113 16.1513C21.5467 16.1513 23.1373 17.6196 23.1373 19.5773C23.1373 21.4126 21.5467 23.0033 19.7113 23.0033Z" fill="black"/>
<path d="M25.095 15.4171C25.7708 15.4171 26.3186 14.8693 26.3186 14.1936C26.3186 13.5178 25.7708 12.97 25.095 12.97C24.4193 12.97 23.8714 13.5178 23.8714 14.1936C23.8714 14.8693 24.4193 15.4171 25.095 15.4171Z" fill="black"/>
</svg>
