<svg width="40" height="40" viewBox="0 0 40 40" fill="none" xmlns="http://www.w3.org/2000/svg">
<path d="M0.422852 19.5771C0.422852 30.3893 9.18783 39.1543 20 39.1543C30.8121 39.1543 39.5771 30.3893 39.5771 19.5771C39.5771 8.76498 30.8121 0 20 0C9.18783 0 0.422852 8.76498 0.422852 19.5771Z" fill="#2867B2"/>
<path d="M14.6163 29.3657H10.4561V16.2735H14.6163V29.3657ZM12.5362 14.4381C11.1903 14.4381 10.2114 13.4593 10.2114 12.1134C10.2114 10.7674 11.3126 9.78857 12.5362 9.78857C13.8821 9.78857 14.861 10.7674 14.861 12.1134C14.861 13.4593 13.8821 14.4381 12.5362 14.4381ZM29.7886 29.3657H25.6284V22.269C25.6284 20.1889 24.7719 19.5771 23.5483 19.5771C22.3248 19.5771 21.1012 20.556 21.1012 22.3914V29.3657H16.9411V16.2735H20.8565V18.1089C21.2236 17.2524 22.6918 15.9064 24.7719 15.9064C27.0967 15.9064 29.5438 17.2524 29.5438 21.2901V29.3657H29.7886Z" fill="black"/>
</svg>
