<svg width="40" height="40" viewBox="0 0 40 40" fill="none" xmlns="http://www.w3.org/2000/svg">
<path d="M0.711426 19.5771C0.711426 30.3893 9.47641 39.1543 20.2886 39.1543C31.1007 39.1543 39.8657 30.3893 39.8657 19.5771C39.8657 8.76498 31.1007 0 20.2886 0C9.47641 0 0.711426 8.76498 0.711426 19.5771Z" fill="#1DA1F2"/>
<path d="M30.0771 13.4593C29.343 13.8263 28.6088 13.9487 27.7523 14.071C28.6088 13.5816 29.2206 12.8475 29.4653 11.8686C28.7312 12.358 27.8747 12.6028 26.8958 12.8475C26.1617 12.1133 25.0605 11.6239 23.9593 11.6239C21.3898 11.6239 19.4321 14.071 20.0439 16.5182C16.7402 16.3958 13.8036 14.8052 11.7236 12.358C10.6224 14.1934 11.2341 16.5182 12.9471 17.7418C12.3354 17.7418 11.7236 17.497 11.1118 17.2523C11.1118 19.0877 12.4577 20.8007 14.2931 21.2901C13.6813 21.4125 13.0695 21.5348 12.4577 21.4125C12.9471 23.0031 14.4154 24.2267 16.2508 24.2267C14.7825 25.3279 12.5801 25.9397 10.5 25.695C12.3354 26.7962 14.4154 27.5303 16.6179 27.5303C24.0816 27.5303 28.2418 21.2901 27.9971 15.5393C28.8536 15.0499 29.5877 14.3158 30.0771 13.4593Z" fill="black"/>
</svg>
