<svg width="24" height="25" viewBox="0 0 24 25" fill="none" xmlns="http://www.w3.org/2000/svg">
<path d="M24 12.1913C24 18.6477 18.7253 23.8817 12.2172 23.8817C10.1519 23.8817 8.21182 23.3535 6.52297 22.4285L0 24.5L2.12632 18.2259C1.05416 16.465 0.436691 14.3974 0.436691 12.1905C0.437474 5.73403 5.71063 0.5 12.2187 0.5C18.7261 0.501565 24 5.73481 24 12.1913ZM12.2164 2.36415C6.75462 2.36415 2.3118 6.77332 2.3118 12.1936C2.3118 14.3442 3.01301 16.3351 4.19865 17.9551L2.96214 21.6044L6.76714 20.3953C8.33234 21.422 10.2051 22.0199 12.2164 22.0199C17.6782 22.0199 22.1225 17.6116 22.1225 12.1913C22.1241 6.77332 17.6789 2.36415 12.2164 2.36415ZM18.1673 14.8842C18.0937 14.766 17.9012 14.694 17.6132 14.55C17.326 14.406 15.904 13.7134 15.6403 13.6195C15.3742 13.5232 15.1817 13.4747 14.9891 13.7619C14.799 14.0492 14.2449 14.694 14.0751 14.8865C13.9068 15.0783 13.7385 15.1025 13.4498 14.9609C13.161 14.8153 12.2297 14.5148 11.1262 13.5389C10.2677 12.7782 9.68781 11.8414 9.52033 11.5542C9.35051 11.2678 9.50311 11.1128 9.64633 10.9704C9.77546 10.8413 9.93511 10.6355 10.0799 10.4672C10.2247 10.3005 10.2724 10.1823 10.3687 9.99059C10.4634 9.79885 10.4156 9.63216 10.3444 9.48738C10.2724 9.34338 9.69563 7.9347 9.45381 7.36106C9.21355 6.78819 8.97329 6.88289 8.80425 6.88289C8.63599 6.88289 8.44347 6.85941 8.25095 6.85941C8.05843 6.85941 7.74539 6.92906 7.48166 7.21627C7.21792 7.50349 6.47132 8.19609 6.47132 9.60634C6.47132 11.0181 7.50514 12.3791 7.64992 12.57C7.79548 12.7602 9.64868 15.749 12.5842 16.8963C15.5213 18.0428 15.5213 17.6601 16.0503 17.6116C16.5809 17.563 17.7595 16.919 17.999 16.2506C18.2401 15.5791 18.2401 15.0039 18.1673 14.8842Z" fill="#25D366"/>
</svg>
