<svg width="169" height="25" viewBox="0 0 169 25" fill="none" xmlns="http://www.w3.org/2000/svg">
<path d="M169.001 23.1045L168.985 19.7066C167.889 19.8414 167.211 19.8773 166.371 19.8796C165.08 19.8863 164.496 19.3383 164.491 18.0425L164.455 9.85444L168.684 9.83648L168.668 6.50375L164.44 6.52172L164.417 1.24641L160.386 2.26823L160.404 6.53968L157.336 6.55316L157.352 9.88589L160.42 9.87241L160.458 18.4153C160.471 21.6515 162.16 23.5851 165.549 23.5716C166.744 23.5671 167.873 23.3987 169.001 23.1022M156.025 23.3538L156.009 19.9559C155.782 19.9559 155.686 19.9896 155.331 19.9918C153.943 19.9986 153.714 19.3518 153.709 18.3816L153.628 0L149.561 0.01797L149.647 19.0801C149.66 22.2848 151.506 23.6031 154.251 23.5896C155.057 23.5851 155.218 23.52 156.025 23.356V23.3538ZM144.726 23.4369L144.652 6.60706L140.616 6.62502L140.657 15.525C140.664 16.8837 140.412 18.4063 139.446 19.3159C138.964 19.8032 138.321 20.1625 137.385 20.167C135.254 20.176 134.474 18.9498 134.465 16.9758L134.42 6.65197L130.385 6.66994L130.434 17.8988C130.45 21.492 132.689 23.9085 136.271 23.8928C138.402 23.8838 140.271 22.9046 141.07 21.2495L141.371 23.4481L144.728 23.4324L144.726 23.4369ZM128.521 23.5087L120.256 9.27279L127.578 0.565939L122.509 0.588391L113.42 11.2109L113.373 0.62882L109.209 0.646783L109.31 23.5918L113.474 23.5739L113.447 17.3598L117.366 12.7133L123.612 23.5267L128.519 23.5042L128.521 23.5087ZM105.695 16.2976L101.432 16.3155C101.34 17.3194 100.988 18.1301 100.41 18.8443C99.6716 19.7852 98.3825 20.3107 96.9632 20.3152C95.6404 20.322 94.3446 19.7763 93.4373 18.8106C91.8473 17.1667 91.8361 14.319 91.8271 12.2148C91.8181 10.1105 91.8047 7.26282 93.3789 5.60544C94.2795 4.63078 95.5663 4.07383 96.8913 4.06934C98.3129 4.0626 99.6042 4.5432 100.352 5.47744C100.936 6.1871 101.295 6.89676 101.396 7.90062L105.659 7.88266C105.457 6.07032 104.772 4.26248 103.442 2.90828C101.724 1.1678 99.3302 0.273986 96.8779 0.282969C94.4232 0.294198 92.1348 1.14535 90.4011 2.90154C87.9262 5.40557 87.5849 8.48003 87.6006 12.235C87.6163 15.9899 87.9869 19.0621 90.4819 21.5437C92.2336 23.2842 94.5288 24.0814 96.9834 24.0724C99.4358 24.0612 101.821 23.0798 103.525 21.3258C104.844 19.9604 105.513 18.1121 105.699 16.2998L105.695 16.2976ZM79.6708 15.5722L73.149 15.6014L76.3672 5.91087L79.6708 15.5722V15.5722ZM86.8415 23.6951L78.7006 0.78602L74.1484 0.806231L66.2119 23.7872L70.4092 23.7692L71.8757 19.3608L80.98 19.3204L82.4847 23.7153L86.8438 23.6951H86.8415ZM63.0768 8.23524C63.0857 10.4361 61.8348 11.9295 59.0568 11.943L54.3766 11.9632L54.343 4.55218L59.0231 4.53196C61.7989 4.51849 63.0655 6.03439 63.0745 8.23524H63.0768ZM67.2741 8.18359C67.2539 3.78188 64.4332 0.848905 59.1714 0.873608L50.1973 0.91403L50.2983 23.8591L54.4305 23.8411L54.3946 15.6216L59.2365 15.5991C64.4983 15.5767 67.2943 12.5853 67.2741 8.18359V8.18359Z" fill="#B8D133"/>
<path d="M33.5866 10.5374C33.0498 10.0029 32.3379 9.73787 31.6282 9.74011C30.9186 9.74236 30.2112 10.0141 29.6767 10.5531L27.7296 12.5204L29.6924 14.472C30.2291 15.0064 30.941 15.2715 31.6507 15.2692C32.3604 15.267 33.0678 14.9952 33.6023 14.4562C34.1345 13.9172 34.3995 13.2053 34.3973 12.4934C34.395 11.7815 34.1233 11.0719 33.5843 10.5374M36.9619 7.12154C38.4419 8.59028 39.1875 10.5306 39.1942 12.4732C39.2032 14.4136 38.4756 16.3606 37.0091 17.8451C35.5426 19.3273 33.6068 20.0752 31.6709 20.0841C29.7351 20.0931 27.7925 19.3632 26.3125 17.8945L24.3497 15.9429L19.6381 20.7085C17.7269 22.6421 15.288 23.7492 12.7705 24.0322L12.748 19.1813C14.0281 18.9343 15.2453 18.3167 16.2245 17.3286L20.9429 12.5563L24.3205 9.14049L26.2676 7.1732C27.7341 5.69099 29.6699 4.94315 31.6058 4.93416C33.5416 4.92518 35.4842 5.65506 36.9642 7.12379L36.9619 7.12154Z" fill="#EE4225"/>
<path fill-rule="evenodd" clip-rule="evenodd" d="M10.2734 19.1927C8.98207 18.9614 7.74465 18.3528 6.75202 17.3646C4.14019 14.7708 4.12222 10.4814 6.70935 7.86504C9.29648 5.24871 13.5747 5.2285 16.1865 7.82237L19.1846 10.8025L22.5622 7.38669L19.5686 4.41328C15.0793 -0.0468206 7.76711 -0.0153782 3.31599 4.48515C-1.13288 8.98567 -1.10144 16.3159 3.38786 20.776C5.31697 22.6939 7.76936 23.7808 10.2936 24.0391L10.2711 19.1927H10.2734Z" fill="#B8D133"/>
</svg>
